<svg width="30" height="30" viewBox="0 0 30 30" fill="none" xmlns="http://www.w3.org/2000/svg">
<path d="M30 15C30 18.9782 28.4196 22.7936 25.6066 25.6066C22.7936 28.4196 18.9782 30 15 30C11.0218 30 7.20644 28.4196 4.3934 25.6066C1.58035 22.7936 0 18.9782 0 15C0 11.0218 1.58035 7.20644 4.3934 4.3934C7.20644 1.58035 11.0218 0 15 0C18.9782 0 22.7936 1.58035 25.6066 4.3934C28.4196 7.20644 30 11.0218 30 15V15ZM12.7312 9.54937C12.5911 9.44957 12.4261 9.39027 12.2545 9.37797C12.0828 9.36568 11.9111 9.40087 11.7581 9.47968C11.6052 9.55849 11.4768 9.67788 11.3872 9.82478C11.2976 9.97168 11.2501 10.1404 11.25 10.3125V19.6875C11.2501 19.8596 11.2976 20.0283 11.3872 20.1752C11.4768 20.3221 11.6052 20.4415 11.7581 20.5203C11.9111 20.5991 12.0828 20.6343 12.2545 20.622C12.4261 20.6097 12.5911 20.5504 12.7312 20.4506L19.2937 15.7631C19.4153 15.6764 19.5143 15.5619 19.5827 15.4292C19.651 15.2964 19.6867 15.1493 19.6867 15C19.6867 14.8507 19.651 14.7036 19.5827 14.5708C19.5143 14.4381 19.4153 14.3236 19.2937 14.2369L12.7312 9.54937V9.54937Z" fill="#959191" fill-opacity="0.74"/>
<g clip-path="url(#clip0_29_184)">
<path d="M15 28.125C11.519 28.125 8.18064 26.7422 5.71922 24.2808C3.25781 21.8194 1.875 18.481 1.875 15C1.875 11.519 3.25781 8.18064 5.71922 5.71922C8.18064 3.25781 11.519 1.875 15 1.875C18.481 1.875 21.8194 3.25781 24.2808 5.71922C26.7422 8.18064 28.125 11.519 28.125 15C28.125 18.481 26.7422 21.8194 24.2808 24.2808C21.8194 26.7422 18.481 28.125 15 28.125ZM15 30C18.9782 30 22.7936 28.4196 25.6066 25.6066C28.4196 22.7936 30 18.9782 30 15C30 11.0218 28.4196 7.20644 25.6066 4.3934C22.7936 1.58035 18.9782 0 15 0C11.0218 0 7.20644 1.58035 4.3934 4.3934C1.58035 7.20644 0 11.0218 0 15C0 18.9782 1.58035 22.7936 4.3934 25.6066C7.20644 28.4196 11.0218 30 15 30V30Z" fill="#959191" fill-opacity="0.74"/>
<path d="M11.7581 9.47812C11.9115 9.39916 12.0836 9.36403 12.2556 9.3766C12.4277 9.38917 12.5929 9.44895 12.7331 9.54937L19.2956 14.2369C19.4172 14.3236 19.5162 14.4381 19.5846 14.5708C19.6529 14.7036 19.6886 14.8507 19.6886 15C19.6886 15.1493 19.6529 15.2964 19.5846 15.4292C19.5162 15.5619 19.4172 15.6764 19.2956 15.7631L12.7331 20.4506C12.5929 20.551 12.4278 20.6107 12.2559 20.6233C12.0839 20.6358 11.9119 20.6008 11.7586 20.5219C11.6053 20.443 11.4767 20.3234 11.387 20.1762C11.2973 20.029 11.2499 19.8599 11.25 19.6875V10.3125C11.2498 10.1402 11.2972 9.97109 11.3868 9.82389C11.4764 9.6767 11.6049 9.55706 11.7581 9.47812V9.47812Z" fill="white"/>
</g>
<defs>
<clipPath id="clip0_29_184">
<rect width="30" height="30" fill="white"/>
</clipPath>
</defs>
</svg>
